# xmcd CD database file
#
# Track frame offsets:
#	150
#	11304
#	27097
#	38826
#	59172
#	73962
#	88138
#	104220
#	112664
#	122813
#	141827
#	160943
#	173966
#	187716
#	197376
#	206334
#	218426
#	232525
#	245273
#	256190
#	266292
#	284146
#	299296
#	312655
#	323434
#	340180
#
# Disc length: 4739 seconds
#
# Revision: 2
# Processed by: cddbd v1.5.2PL0 Copyright (c) Steve Scherf et al.
# Submitted via: CDex 1.70beta2
#
DISCID=7112811a
DTITLE=Small Faces - Odgens Nut Gone Flake
DYEAR=1968
DGENRE=Psychedelic Rock
TTITLE0=Odgens Nut Gone Flake
TTITLE1=Afterglow (Of Your Love)
TTITLE2=Long Agos And Worlds Apart
TTITLE3=Rene
TTITLE4=Song Of A Baker
TTITLE5=Lazy Sunday
TTITLE6=Hapiness Stan
TTITLE7=Rollin' Over
TTITLE8=Hungry Intruder
TTITLE9=Journey
TTITLE10=Mad John
TTITLE11=Happydaystoytown
TTITLE12=Here Come The Nice (Bonus Track)
TTITLE13=Talk To You (Bonus Track)
TTITLE14=My Way Of Giving (Bonus Track)
TTITLE15=Universal (Bonus Track)
TTITLE16=Donkey Rides, A Penny, A Glass (With Brass) (Bonus Track)
TTITLE17=Itchycoo Park (Bonus Track)
TTITLE18=I'm Only Dreaming (Bonus Track)
TTITLE19=Tell Me Have You Ever Seen Me (Bonus Track)
TTITLE20=Autumn Stone (Bonus Track)
TTITLE21=Wham Bam, Thank You Mam (Bonus Track)
TTITLE22=If You Think You're Groovy (Bonus Track)
TTITLE23=Don't Burst My Bubble (Bonus Track)
TTITLE24=All Or Nothing (Live/Bonus Track)
TTITLE25=Tin Soldier (Live/Bonus Track)
EXTD=YEAR: 1968
EXTT0=
EXTT1=
EXTT2=
EXTT3=
EXTT4=
EXTT5=
EXTT6=
EXTT7=
EXTT8=
EXTT9=
EXTT10=
EXTT11=
EXTT12=
EXTT13=
EXTT14=
EXTT15=
EXTT16=
EXTT17=
EXTT18=
EXTT19=
EXTT20=
EXTT21=
EXTT22=
EXTT23=
EXTT24=
EXTT25=
PLAYORDER=
